<?xml version="1.0" encoding="utf-8"?>
<!-- Generator: Adobe Illustrator 26.0.1, SVG Export Plug-In . SVG Version: 6.00 Build 0)  -->
<svg version="1.1" id="Capa_1" xmlns="http://www.w3.org/2000/svg" xmlns:xlink="http://www.w3.org/1999/xlink" x="0px" y="0px"
	 viewBox="0 0 75 75" style="enable-background:new 0 0 75 75;" xml:space="preserve">
<style type="text/css">
	.st0{fill:none;stroke:#FFFFFF;stroke-width:2.2695;stroke-miterlimit:10;}
</style>
<g>
	<g>
		<defs>
			<path id="SVGID_1_" d="M26.1,61.8c0-1.2,0.1-2.4,0.2-3.5c2-0.4,4-1.1,5.9-2.1c-2.3,2-4.3,4.3-6,6.7
				C26.1,62.5,26.1,62.2,26.1,61.8 M29.8,45.6c2.9,0.7,5.9,1,8.9,1H39c-0.6,0.8-1.2,1.5-1.8,2.2c-2.8,3-6.4,5.2-10.4,6.2
				C27.4,51.8,28.4,48.6,29.8,45.6 M39.4,50.9c1.3-1.4,2.4-2.9,3.4-4.5h0l0.4-0.7c0.9-1.6,1.6-3.3,2.1-5l0-0.1
				c0.5-1.7,0.8-3.3,0.9-5.1c0-0.5,0.1-0.9,0.1-1.3c1.9,1.6,4.2,2.4,6.6,2.5h0.1c0.7,0,1.4-0.1,2.1-0.2c-0.1,1.2-0.3,2.4-0.8,3.5
				c-0.1,0.2-0.1,0.4-0.2,0.5c-2.5,5.6-8.8,7.8-8.9,7.8c-2.2,0.8-4.4,1.8-6.4,3C39.1,51.2,39.3,51,39.4,50.9 M40.7,32.2
				c0.3-0.3,0.7-0.5,1-0.8c0.5-0.3,0.9-0.6,1.4-0.9c0.1,0.9,0.2,1.9,0.2,2.9c0,0.6,0,1.2-0.1,1.9c0,0.2,0,0.3-0.1,0.5
				C42.4,34.6,41.6,33.4,40.7,32.2 M53,26c1-0.3,2-0.5,3-0.7c-0.8,1.5-1.2,3.2-1.2,4.9c0,0.8,0.1,1.5,0.2,2.3c0.1,0.3,0.1,0.6,0.2,1
				c-0.6,0.2-1.3,0.3-2,0.3H53c-3.1-0.1-5.8-2-7-4.9c2.1-1.1,4.3-2,6.5-2.7l0,0L53,26z M30.3,42.6c-0.3-0.1-0.6-0.1-0.9-0.2
				c-11.6-3-21-11.3-25.3-22.4c1.6-0.2,3.1-0.4,4.7-0.4c6.2,0,12.4,1.6,17.9,4.6c1.3,0.7,2.6,1.5,3.8,2.4c2.6,1.9,4.9,4,7,6.5l0,0
				l0,0c1.9,2.3,3.5,4.8,4.8,7.4c-0.3,1.1-0.8,2.1-1.3,3.1c-0.7,0-1.5,0.1-2.2,0.1C35.9,43.5,33,43.2,30.3,42.6 M46.8,21.9
				c1.4-2.1,3.8-3.4,6.3-3.4c2.5,0,4.8,1.2,6.2,3.2c-2.5,0.2-4.9,0.7-7.2,1.4l0,0l-0.4,0.1l0,0c-2.1,0.6-4.2,1.4-6.1,2.4
				C45.7,24.3,46.1,23,46.8,21.9 M32.2,24c-1.1-0.8-2.3-1.5-3.5-2.2c-0.1-0.6-0.2-1.1-0.3-1.7c-0.1-0.9-0.2-1.9-0.2-2.8
				c0-1.6,0.2-3.2,0.5-4.8c4.6,1.7,8.5,4.9,11.1,9.1c1.1,1.8,2,3.8,2.6,5.8c-0.9,0.5-1.7,1.1-2.5,1.7c-0.4,0.3-0.8,0.6-1.2,0.9
				C36.8,27.7,34.6,25.7,32.2,24 M26.2,10c-0.7,2.3-1,4.8-1,7.2c0,0.9,0.1,1.9,0.2,2.8c-5.2-2.4-10.9-3.6-16.6-3.6
				c-2.4,0-4.7,0.3-7,0.8L0,17.5l0.6,1.7C4.7,31.5,14.4,41,26.8,44.8c-1.8,3.8-2.9,7.9-3.4,12c-0.2,1.6-0.3,3.3-0.3,5
				c0,2,0.1,4,0.4,6l0.7,4.5l2.2-4c4.4-7.9,11.5-14,20-17.1c0.3-0.1,7.7-2.5,10.7-9.5c0.1-0.2,0.2-0.4,0.3-0.7c0.7-1.8,1-3.7,1-5.6
				c0-0.4,0-0.8,0-1.1c-0.1-0.9-0.2-1.7-0.4-2.6c-0.5-2.6,0.3-5.3,2.2-7.1c0.5,0,1.1-0.1,1.6-0.1c3.3-0.1,6.7,0.2,10,0.9
				c0.3,0.1,0.7,0.2,1,0.2l0.4,0.1c0.8,0.2,1.6-0.3,1.8-1.1c0,0,0,0,0,0c0.2-0.8-0.3-1.7-1.1-1.9l-0.3-0.1c-0.3-0.1-0.7-0.2-1.1-0.3
				c-3.2-0.7-6.4-1.1-9.7-1c0,0,0-0.1-0.1-0.2c-2.6-5.3-9-7.4-14.3-4.8c-1.7,0.8-3.1,2.1-4.2,3.7c-0.3,0.4-0.5,0.9-0.8,1.4
				c-0.3-0.6-0.6-1.2-1-1.8c-3.3-5.3-8.4-9.1-14.4-10.9l-1.5-0.4L26.2,10z"/>
		</defs>
		<use xlink:href="#SVGID_1_"  style="overflow:visible;fill:#FFFFFF;"/>
		<clipPath id="SVGID_00000037659618327288588080000007464364779153591937_">
			<use xlink:href="#SVGID_1_"  style="overflow:visible;"/>
		</clipPath>
	</g>
	<path class="st0" d="M71.5,29.5c0.1,0.7,0.2,1.4,0.3,2c0.2,1.4,0.3,2.8,0.3,4.3c0,18.3-14.8,33.1-33.1,33.1c-2.8,0-5.6-0.4-8.2-1"
		/>
	<path class="st0" d="M14.5,13.6c0.4-0.5,0.8-0.9,1.3-1.3C21.7,6.3,30,2.7,39,2.7c11.6,0,21.7,5.9,27.7,14.9"/>
	<path class="st0" d="M20.6,63.3c-0.5-0.4-1-0.7-1.5-1.1c-8-6-13.2-16-13.2-26.7"/>
</g>
</svg>
